<?xml version="1.0" encoding="utf-8"?>
<!-- Generator: Adobe Illustrator 19.2.1, SVG Export Plug-In . SVG Version: 6.00 Build 0)  -->
<svg version="1.1" id="Layer_1" xmlns="http://www.w3.org/2000/svg" xmlns:xlink="http://www.w3.org/1999/xlink" x="0px" y="0px"
	 viewBox="0 0 119.7 21" style="enable-background:new 0 0 119.7 21;" xml:space="preserve">
<style type="text/css">
	.st0{fill:none;stroke:#000000;stroke-miterlimit:10;}
</style>
<g>
	<g transform="translate(0.000000,511.000000) scale(0.100000,-0.100000)">
		<path class="st0" d="M91.5,5074.4c-8.5-17-15.8-31.1-16-31.6c-0.5-0.5-15.8-3-34.1-5.8c-18.5-2.8-34.6-6-36.1-7.5
			c-1.8-1.8,5.5-10.5,23.3-27.8l25.8-25.1l-5.8-34.9c-3-19.1-4.5-35.6-3.5-36.6c1-1,16.3,5.5,33.6,14.5l31.8,16.6l31.8-16.6
			c17.3-9,32.6-15.8,33.6-14.5c1,1-0.8,17.6-4,36.9l-5.8,35.1l24.1,22.8c14.3,13.3,24.3,24.8,24.3,27.6c0,2.5-0.5,4.8-1.3,4.8
			c-1.8,0-50.9,7.3-60.9,8.8c-7.8,1.5-9,3.3-23.1,32.8c-9.5,20.1-16.1,31.1-18.6,31.1S101.3,5094,91.5,5074.4z"/>
		<path class="st0" d="M350.8,5102c-1.5-1.8-9-15.8-16.8-31.3c-12.8-25.8-14.5-28.1-22.1-29.6c-4.5-0.8-19.6-3-33.3-5
			c-13.8-2.3-26.1-5-27.6-6.5c-1.5-1.5,6.5-11.3,23.1-28.1l25.3-25.6l-6-33.9c-4-22.6-5.3-34.3-3.5-36.1c1.8-1.8,12.8,2.8,33.9,13.5
			l31.3,16.3l31.3-16.3c20.1-10.3,32.1-15.3,33.6-13.8c1.8,1.8,0.3,14.5-3.5,36.4l-6,33.9l25.6,25.6c18.1,18.6,24.6,26.6,22.8,28.3
			c-1.5,1.5-17.8,5-36.4,7.8c-18.6,2.8-33.9,5.8-34.3,6.8c-5.8,13.8-30.1,59.4-32.1,60.2C354.5,5104.7,352,5103.8,350.8,5102z"/>
		<path class="st0" d="M583,5074.4c-8.5-17-15.8-31.1-16-31.6c-0.5-0.5-15.8-3-34.1-5.8c-18.6-2.8-34.6-6-36.1-7.5
			c-1.8-1.8,5.5-10.5,23.3-27.8l26.1-25.3l-5.8-34.6c-3.3-19.1-5-35.6-3.8-36.6c1-1,16.3,5.5,33.6,14.5l31.8,16.6l31.8-16.6
			c17.3-9,32.6-15.8,33.6-14.5c1,1-0.8,17.6-4,36.9l-5.8,35.1l24.1,22.8c14.3,13.3,24.3,24.8,24.3,27.6c0,2.5-0.5,4.8-1.3,4.8
			c-1.8,0-50.9,7-60.7,8.8c-7.5,1.3-9,3.5-23.1,32.6c-9.8,20.3-16.3,31.3-18.8,31.3C599.8,5105,592.8,5094,583,5074.4z"/>
		<path class="st0" d="M835.5,5099.5c-2-3.3-9-17-15.5-30.8c-6.5-13.8-12-25.3-12.3-25.6c-0.3-0.5-15.3-2.8-33.9-5.5
			c-18.3-2.8-34.6-6.3-36.1-7.8c-1.8-1.8,4.8-9.8,22.8-28.3l25.6-25.6l-6.3-33.9c-4-22.6-5.3-34.3-3.5-36.1
			c1.8-1.8,12.8,2.8,33.9,13.5l31.3,16.3l31.3-16.3c21.1-10.8,32.1-15.3,33.9-13.5c1.8,1.8,0.5,13.5-3.5,36.1l-6.3,33.9l25.6,25.6
			c17,17.3,24.6,26.6,22.8,28.3c-1.3,1.3-17.6,4.8-36.1,7.5c-19.6,3-34.3,6.5-34.9,8.3c-3.8,10.3-29.6,58.2-32.1,58.9
			C840.8,5105,837.7,5102.7,835.5,5099.5z"/>
		<path class="st0" d="M1066.9,5073.7c-14-29.1-15.5-31.3-23.1-32.6c-4.5-0.8-19.8-3-34.3-5c-14.5-2.3-27.3-5-28.8-6.5
			c-1.5-1.5,6.3-11,23.6-27.8l25.8-25.3l-5.8-34.6c-3.3-19.1-5-35.6-3.8-36.6c1-1,16.3,5.5,33.6,14.5l31.8,16.6l31.8-16.6
			c17.3-9,32.6-15.5,33.6-14.5c1.3,1-0.5,17.6-3.8,36.6l-5.8,34.3l25.8,25.6c18.1,17.3,25.3,26.1,23.6,27.8
			c-1.5,1.5-17.6,4.8-36.1,7.5c-18.3,2.8-33.9,5.3-34.3,5.8c-0.5,0.5-7.5,14.8-15.8,31.6c-10,20.1-16.6,30.6-19.1,30.6
			C1083.2,5105,1076.7,5094.5,1066.9,5073.7z"/>
	</g>
</g>
</svg>
